<svg xmlns="http://www.w3.org/2000/svg" viewBox="0 0 334 118.35"><defs><style>.cls-1{fill:none;stroke:#000;stroke-miterlimit:10;stroke-width:3px;}</style></defs><g id="Слой_2" data-name="Слой 2"><g id="Слой_1-2" data-name="Слой 1"><path d="M110.83,2.66a7.53,7.53,0,0,1,1.3-.93,7.74,7.74,0,0,1,4-.94l7.71,20.09a13,13,0,0,1-2.64,1.28,13.44,13.44,0,0,1-3.77.74,25.16,25.16,0,0,0-6.85-6.84l-.75-.47a46.75,46.75,0,0,1-9.1,31.07,6.72,6.72,0,0,0,2.94-.25,8.28,8.28,0,0,0,3.24-2.23c1.38-1.28,2.89-2.42,4.25-3.72,3.37-3.24,5.06-4.86,6-5.62a25.59,25.59,0,0,1,9.71-5c3.43-1.29,5.6-.64,6.53-.26,5.09,2.1,5.93,10,6.31,13.55a29.48,29.48,0,0,1-.21,7.73A40.12,40.12,0,0,1,131,70.63a12.86,12.86,0,0,1-3,1.66,13,13,0,0,1-3.38.79,34.24,34.24,0,0,0-11-26.21l5-1.87a32.27,32.27,0,0,1,9.65,13.43A30.69,30.69,0,0,1,129.84,65a40.48,40.48,0,0,0,3.74-11.8,33.74,33.74,0,0,0-.47-12.95,17.44,17.44,0,0,0-2.84-5.71,7,7,0,0,0-2.34-2,6.45,6.45,0,0,0-2.13-.64,12.74,12.74,0,0,0-1.8.79,14.27,14.27,0,0,0-4.75,4.25,46.27,46.27,0,0,1-7.54,7.35,23.51,23.51,0,0,1-10.81,4.59,10.82,10.82,0,0,1-7-.06,30.51,30.51,0,0,0,4.86-6A33.33,33.33,0,0,0,103,31.61c1-4.73,2.07-9.39.85-15.24A29.14,29.14,0,0,0,97.22,3.24a1.46,1.46,0,0,0,1-1.37c.72-.34,1.5-.68,2.33-1s1.62-.61,2.39-.86Q108.45,5.73,114,11.45,112.41,7.06,110.83,2.66Z"/><path d="M158.78,5a5.82,5.82,0,0,0-.21,5.72,4.19,4.19,0,0,0,1.28,1.45,3.9,3.9,0,0,0,1.52.61c.73-.18,1.52-.44,2.38-.71a9.08,9.08,0,0,0,2.73-1.17,2.4,2.4,0,0,0-.52-.65,5,5,0,0,0-.9-.52,3.36,3.36,0,0,1-1.13-1,2.53,2.53,0,0,1-.33-.72,2.93,2.93,0,0,1-.33-1.69A23.66,23.66,0,0,1,164,3.83a.81.81,0,0,0,0-.63.74.74,0,0,0-.16-.18A30.87,30.87,0,0,0,158.78,5Z"/><path d="M163.2,16.73a17.13,17.13,0,0,1,2.12-.88c.72-.25,1.29-.39,1.47-.44l.7-.15a.39.39,0,0,1,.22,0,.35.35,0,0,1,.14.12q4.46,10.79,8.86,21.81,3.21,8.06,6.32,16a.15.15,0,0,1,0,.16.14.14,0,0,1-.11.09,17.17,17.17,0,0,1-2.35,1.16,18.12,18.12,0,0,1-2.36.76.24.24,0,0,1-.15,0,.21.21,0,0,1-.12-.16q-3.45-8.34-6.86-16.85Q166.9,28,162.91,17.78l-.09-.28c-.07-.22-.1-.26-.08-.33s.08-.15.21-.26Z"/><path d="M189.09,35l.31.94c.67,2,1.18,3.35,1.66,4.65s.21.61,1.45,4c1,2.63,1.83,5.28,2.82,7.9.07.17.28.73.51,1.49.1.36.18.66.23.87l-.41.25a15.69,15.69,0,0,1-1.93.83c-.64.25-1,.38-1.42.54s-.86.29-1.2.4a2.75,2.75,0,0,1-.29-.36,2.42,2.42,0,0,1-.29-.54c-.16-.55-.43-1.47-.8-2.61-1.17-3.59-2.25-6.21-2.64-7.15-3.82-9.28-5.71-16.3-7.45-20.51a26.66,26.66,0,0,1-1.47-4.78c0-.22-.08-.39-.1-.48a1.12,1.12,0,0,1,.3-.34,1.84,1.84,0,0,1,.89-.26,2.7,2.7,0,0,0,1-.41,1.26,1.26,0,0,0,.23-.6,5.61,5.61,0,0,1,0-.58,1.19,1.19,0,0,1,.22-.48c.55-.25,1-.44,1.35-.58a17.19,17.19,0,0,1,2.41-.83c.37-.1.67-.15.87-.19a.44.44,0,0,1,.29.11.49.49,0,0,1,.12.23c.09.87.19,1.73.29,2.6.11.5.29,1.25.57,2.14a23.33,23.33,0,0,0,5.73,9.42,21.76,21.76,0,0,0,3.15,2.56c.91.56,1.66,1,2.18,1.26,1,.55,1.4.7,2.36,1.24.2.11.95.53,1.91,1.14a18,18,0,0,1,3,2.2,9.17,9.17,0,0,1,1.57,1.81c.28.45.49.88,1.07,1.89s.55.86.6,1a1.67,1.67,0,0,0,.17.26l.13.12a1.76,1.76,0,0,0,0-.19,3.64,3.64,0,0,0-.12-.62c-.11-.4-.19-.82-.3-1.23-.46-1.65-.3-1.28-1.32-4.81-.56-2-.85-3-1.06-3.66-.17-.53-.8-2.49-1.78-5.05-.47-1.22-1.16-3-2.18-5.2a55.77,55.77,0,0,0-3.07-5.89,33.2,33.2,0,0,0-2.81-4.11c-.09-.1-.53-.56-1.06-1.24-.3-.38-.54-.7-.68-.91a.35.35,0,0,1-.07-.14.38.38,0,0,1,0-.15,4,4,0,0,1,.36-.23,7.11,7.11,0,0,1,1.23-.54,9.54,9.54,0,0,0,1-.47,14.46,14.46,0,0,1,2.2-.76.54.54,0,0,1,.28,0,.58.58,0,0,1,.27.19,6.37,6.37,0,0,1,1.21,1.31c.11.16.16.26.4.62.36.57.64,1,.75,1.13.68,1,1.43,2.23,1.92,3.05.32.54.72,1.23,1.16,2,.18.33.46.87.81,1.54a97.75,97.75,0,0,1,4.12,9.58c.67,1.86,1.32,3.9,1.44,4.28.39,1.21.85,2.65,1.37,4.58.47,1.71.77,3,1.07,4.32s.51,2.19.75,3.4a46.14,46.14,0,0,1,.76,5c.06.72.09,1.34.13,2,.07,1.29.11,2.07.09,3a16.21,16.21,0,0,1-.22,2.9,13.33,13.33,0,0,1-1.06,3.23c-.51.23-.94.4-1.25.52a18.88,18.88,0,0,1-2.39.83c-.44.11-.8.19-1,.23a.52.52,0,0,1-.26-.12.59.59,0,0,1-.17-.46,2.38,2.38,0,0,0-.05-.49,2.2,2.2,0,0,0-.16-.51c-.11-.18-.25-.43-.41-.75s-.22-.46-.44-1l-.45-1.11c-.59-1.48-1-2.65-1-2.65-.76-2.13-1.52-4.27-2.4-6.5a29.44,29.44,0,0,0-2.15-4.61c-.35-.6-.66-1.08-.88-1.4a12,12,0,0,0-2-2.18,17.15,17.15,0,0,0-2.1-1.44c-1-.62-1.8-1-2-1.13C193.83,37.76,192.1,36.8,189.09,35Z"/><path d="M209.9,10.15s-.1-.25.25-.37c.52-.25,1-.44,1.3-.58a21.74,21.74,0,0,1,2.84-1l.45-.11h.13a1.63,1.63,0,0,1,.11.2,1.14,1.14,0,0,1,.12.28c.1.29.2.57.28.85a11.57,11.57,0,0,0,.37,1.14c.2.53.31.68.38.92a.83.83,0,0,0,.11.26.9.9,0,0,0,.14.17c.29-.15.73-.38,1.25-.69.69-.4,1-.63,1.8-1.12.37-.23,1.12-.71,1.93-1.17a25.23,25.23,0,0,1,2.34-1.24s1.17-.53,3.12-1.19c.33-.11.41-.13.68-.24a7.07,7.07,0,0,1,1-.33,3.7,3.7,0,0,1,.43-.07.29.29,0,0,1,.23,0,.3.3,0,0,1,.1.14c0,.19,0,.46.07.8s0,.77,0,1a17.79,17.79,0,0,0,.1,1.84,10.3,10.3,0,0,0,.35,1.71A13.42,13.42,0,0,0,230.88,14a3.74,3.74,0,0,0,.32.48c.27.29.49.36.81.72a2.12,2.12,0,0,1,.19.24.54.54,0,0,1-.06.26.57.57,0,0,1-.2.21l-1.43.56c-1.11.41-2.18.77-3.22,1.07a.59.59,0,0,1-.34.06.66.66,0,0,1-.43-.22,5.92,5.92,0,0,1-.74-.79,6.85,6.85,0,0,1-.73-1.2,13.64,13.64,0,0,1-.79-2.15,15.92,15.92,0,0,1-.42-1.82c0-.19,0-.29-.05-.41a2,2,0,0,0,0-.44s0-.08,0-.17v-.09s0-.12-.07-.16-.1,0-.17,0a.72.72,0,0,0-.14.05l-.8.34c-.35.16-.83.38-2,1-.93.49-1.47.78-2.22,1.23-.55.33-1,.62-1.32.83a.3.3,0,0,0-.09.1.47.47,0,0,0-.05.1.18.18,0,0,0,0,.13c.25.78.94,3,1.19,3.79,3.16,10,3.87,12.35,5.34,16.87l1.41,4.31c2.38,7.3,2.08,6.46,2.32,7.13.54,1.58,1.15,3.3,1.89,5.88.11.41.21.75.27,1l-.07.08-.13.07c-.11,0-.14.09-.39.23s-.29.14-.39.19l-.88.4a21.43,21.43,0,0,1-2.44.87l-.6.18a.33.33,0,0,1-.1,0,.16.16,0,0,1-.08,0,1.19,1.19,0,0,1-.17-.22c-.15-.33-.25-.61-.32-.81s-.15-.53-.29-.86a4.61,4.61,0,0,0-.26-.51c-.09-.32-.21-.76-.36-1.28s-.59-2-1.16-3.88c-.26-.82-.4-1.24-1.47-4.46-1.4-4.19-1.61-4.8-2-6s-.33-1.08-1-3.26-1-3-1.56-4.88c-1.05-3.28-1.15-3.68-2.28-7.24-.4-1.27-1-3-1.6-5l-.17,0a2.22,2.22,0,0,0-.37.11c-.17.07.51-.21-.67.24-.58.22-1.32.52-1.58.61-.72.29-1.12.44-1.69.63-.28.08-.68.21-1.27.42l-.46.17a1.91,1.91,0,0,1-.47-.43,1.08,1.08,0,0,1-.28-1l.76-.24.69-.2a7.5,7.5,0,0,1,.78-.15,1.73,1.73,0,0,0,.3-.06,3.15,3.15,0,0,0,.68-.24,7.19,7.19,0,0,1,.71-.27A19.56,19.56,0,0,0,210.89,15a.62.62,0,0,0,.16-.31.79.79,0,0,0,0-.32,12.22,12.22,0,0,0-.35-1.4c-.24-.74-.44-1.1-.62-1.86A6.16,6.16,0,0,1,209.9,10.15Z"/><path d="M239.78,35.64a.66.66,0,0,1,0-.43.75.75,0,0,1,.27-.37,2.89,2.89,0,0,1,.6-.37,4.34,4.34,0,0,1,.72-.24,11.78,11.78,0,0,0,1.1-.45c.26-.1.63-.24,1.11-.39q3.61-.75,7.3-1.48,5.72-1.11,11.29-2.1a.92.92,0,0,1,.29,0,.44.44,0,0,1,.28.11.41.41,0,0,1,.08.32.7.7,0,0,1-.14.37,1,1,0,0,1-.36.2A2.45,2.45,0,0,1,262,31c-.19.06-.66.25-1.86.75-.64.24-1.18.39-1.55.49s-.51.13-2.17.45l-1.5.29c-1,.2-1.77.36-2,.41-.92.2-3.08.63-8.14,1.55l-4.78.88Z"/><path d="M324,40.39a10.54,10.54,0,0,0-2-2.08,25.56,25.56,0,0,0-3-1.9,27.37,27.37,0,0,0-5-2c-1.26-.39-4.7-1.6-11.57-4a55.58,55.58,0,0,1-5.8-2.22c-1.9-.9-3.41-1.78-5.67-3.11a35.14,35.14,0,0,1-3-1.93,27.21,27.21,0,0,1-2.86-2.45,28.57,28.57,0,0,1-2.71-2.88A29.14,29.14,0,0,1,280,14.25a18.93,18.93,0,0,1-2.24-5.2,19.18,19.18,0,0,1-.56-3.9,17.73,17.73,0,0,1,0-2.09,4.55,4.55,0,0,1,.23-.68,3.58,3.58,0,0,1,.4-.67.64.64,0,0,0,.11-.53.6.6,0,0,0-.34-.39,19.2,19.2,0,0,0-2.68.79,15.71,15.71,0,0,0-1.6.69,10.15,10.15,0,0,0-.9.47,3.5,3.5,0,0,0-.51.77,5,5,0,0,0-.35,1.6c0,.35-.12.92-.22,1.66-.49.23-.92.41-1.28.55-.54.22-.82.33-1,.37a2.92,2.92,0,0,0-.88.29,1.81,1.81,0,0,0-.33.23c.07.32.18.81.33,1.4a51.92,51.92,0,0,0,1.93,6c1.18,3,2.06,6.19,3.13,9.27,1.22,3.53,3,8.83,5.41,16.27a.76.76,0,0,1-.34.1.66.66,0,0,1-.34,0,28.77,28.77,0,0,0-3.28,1l-1.08.41c-.7.25-.87.28-1.2.42A5.42,5.42,0,0,0,271,44a.42.42,0,0,0,0,.5.45.45,0,0,0,.38.18,14.48,14.48,0,0,1,3.52-.76c.54,0,1.21-.06,2-.08s1.62,0,2.13,0a.7.7,0,0,1,.6.21.59.59,0,0,1,.13.29L288,67.76a.34.34,0,0,0,.27.28.32.32,0,0,0,.23-.05,27,27,0,0,0,2.71-.91c.71-.29,1.36-.59,2-.89a.39.39,0,0,0,.21-.21.38.38,0,0,0-.05-.35l-7.07-20.85c.52.06,1.31.16,2.27.32,1.46.23,2.4.47,3.83.78,2.25.49,2.44.48,3.89.8,3.86.85,4.42,1.37,8.83,2.44a30.55,30.55,0,0,0,4.07.81,20.6,20.6,0,0,0,6.34-.26,26.9,26.9,0,0,0,3-.9c1.84-.62,2.25-.88,4.21-1.62a8,8,0,0,0,1-.43,5.56,5.56,0,0,0,1-.6,2,2,0,0,0,.64-.72,1.6,1.6,0,0,0,.11-.29A6.42,6.42,0,0,0,324,40.39Zm-4.34,6.16a.63.63,0,0,1-.13.21.58.58,0,0,1-.25.14,4.3,4.3,0,0,1-.94.33,5.54,5.54,0,0,1-1.72.07l-2.06-.13c-.58-.06-1.39-.17-2.36-.36s-1.56-.35-2.44-.59c-2.17-.59-3.09-.9-4.59-1.33-.86-.25-2.12-.59-3.69-1s-3.29-.71-5-1q-1.8-.35-3.54-.63l-3.12-.53q-2.48-.39-4.86-.69-3.14-9.18-6.28-18.35c-.07-.08-.1-.18-.07-.21s.15,0,.26.05c.62.6,1.53,1.43,2.67,2.36a44.61,44.61,0,0,0,9.06,5.52,108.11,108.11,0,0,0,14.62,5.46c1,.31,3.3,1.06,6.32,2.36,1.62.7,2.91,1.34,3.73,1.76a14.92,14.92,0,0,1,2,1.55,8,8,0,0,1,1.62,1.83,6.68,6.68,0,0,1,.58,1.3c.06.21.1.37.14.56a5.13,5.13,0,0,1,.1,1A.81.81,0,0,1,319.7,46.55Z"/><path d="M174.4,50.72c-23.51-16.2-27-38.34-27-38.34,0-1.82-.45-1.59-.45-1.59-5.46,1.31-5.1,2.23-5.1,2.23a1.54,1.54,0,0,1,0,1.06c-.95.38-1,.75-1,.75.83,1.94,3,16.86,3,16.86.42.22,1,14.6,1,14.6a.73.73,0,0,1-.13.51c-.37-.16-5,1.26-5,1.26-1.49.82-.09,1.59-.09,1.59a17.65,17.65,0,0,1,5.09-.33c.25.27-.11,4-.11,4a58.52,58.52,0,0,1-.53,6.19c-.09,1.41.42,1.21.42,1.21a19,19,0,0,0,5-2l.58-9.36c9.12,0,19.51,3.89,19.51,3.89,4.4-1,5.18-1.87,5.18-1.87A1,1,0,0,0,174.4,50.72Zm-13.46-3.65a.26.26,0,0,1-.19.09h-.67a12.63,12.63,0,0,1-1.53-.14c-.34,0-1-.09-2.34-.16-2.42-.13-5.91-.25-6.29-.27l.15-.5c0-1.66,0-3.09-.07-4.19-.06-3.46-.08-4.35-.14-5.46-.09-1.61-.21-2.91-.3-3.74a85.32,85.32,0,0,0,8.47,11c.9,1,1.8,1.94,2.69,2.84C161,46.72,161,47,160.94,47.07Z"/><path d="M229.46,73.71l.13-.07a2.2,2.2,0,0,1,.43-.18s-.34.12.38-.16l1-.4c.13-.05.61-.23,1-.37l.5-.16a1.29,1.29,0,0,1,.2-.06l.14,0,.08,0,.05,0s0,0,0,0a2.93,2.93,0,0,1,.42.52c.12.19.28.35.42.53l1.08,1.38c.63.8,1.19,1.43,1.59,1.89.23.26.16.17,2,2.18.61.65.81.87,1.16,1.19a16,16,0,0,0,1.46,1.17,23,23,0,0,0,2.93,1.87A16.48,16.48,0,0,0,249,84.76c.16,0,.6.1,1.16.15a6.73,6.73,0,0,0,.85,0,6.62,6.62,0,0,0,.7-.07c.33,0,.6-.1.79-.14a.29.29,0,0,0,.22-.13.42.42,0,0,0,0-.16.25.25,0,0,0,0-.09l0-.07s0-.09,0-.22a4.29,4.29,0,0,1,.44-.26l.3-.13,1.11-.41c.59-.2.54-.16.8-.26l.61-.22a1.71,1.71,0,0,1,.29-.09l.24,0a.46.46,0,0,1,.13,0,.3.3,0,0,1,.09.1,1.76,1.76,0,0,1,.12.2,1,1,0,0,1,.1.28.35.35,0,0,1,0,.12v.09a.76.76,0,0,0,0,.14q0,.09,0,.15a.42.42,0,0,1-.06.15l-.08.08-.07.08-.09.08-.07.09c-.34.16-.82.38-1.42.63l-1.59.59c-2,.71-2.45.86-2.69.93-.57.17-.91.28-1.4.38a12.64,12.64,0,0,1-2.1.27,12.3,12.3,0,0,1-2.84-.37,14.91,14.91,0,0,1-3.69-1.51,18.63,18.63,0,0,1-3.59-2.39,6.32,6.32,0,0,0-.64-.57c-.22-.18-.41-.31-.53-.39s-.16-.15-.18-.13,0,.14.09.37a17.22,17.22,0,0,0,4,5.71,20.81,20.81,0,0,0,2.25,1.8c1.27.92,2.38,1.63,3.21,2.13s2,1.15,3.35,2a33.58,33.58,0,0,1,5,3.69,16.76,16.76,0,0,1,3.51,4.11,15.17,15.17,0,0,1,1.48,3.55,13.85,13.85,0,0,1,.42,3.09,11.74,11.74,0,0,1-.26,3.07,11.13,11.13,0,0,1-1.07,2.85,7.11,7.11,0,0,1-.84,1.23,6.6,6.6,0,0,1-1,1c-.75.38-1.42.68-1.94.89-.76.32-1.33.51-1.59.6a14.12,14.12,0,0,1-1.65.46,4.69,4.69,0,0,1-1.21.12,4,4,0,0,1-1.2-.29,7.69,7.69,0,0,1-1.23-.66,8.19,8.19,0,0,1-1-.75,11.8,11.8,0,0,1-2.15-2.71,16.5,16.5,0,0,1-1.09-2c-.11-.25-.32-.83-.73-2a13.74,13.74,0,0,1-.56-1.78,9.22,9.22,0,0,1-.18-1c0-.3-.05-.53-.07-.69s0-.34,0-.62a2,2,0,0,1,0-.4.74.74,0,0,1,.14-.36.48.48,0,0,1,.12-.1l.89-.36c.78-.29,1.53-.53,2.24-.73.19-.07.37-.08.46,0a.53.53,0,0,1,.09.23.87.87,0,0,1,0,.14c0,.28.17,1,.24,1.33,0,.11.06.28.12.49a17.71,17.71,0,0,0,.6,2.11A20.27,20.27,0,0,0,247.6,111a22.08,22.08,0,0,0,1.36,2.15,9.43,9.43,0,0,0,.76,1,8.32,8.32,0,0,0,.89.82,4.75,4.75,0,0,0,.8.51c.19.1.29.14.53.25s.61.32.78.42a3,3,0,0,0,.4-.4,3.3,3.3,0,0,0,.39-.64l.22-.43.36-.78c.11-.27.18-.47.23-.62a7.54,7.54,0,0,0,.31-1.14,6.53,6.53,0,0,0,.1-.66c0-.33.07-.8.09-1.41a13.17,13.17,0,0,0-.07-1.81c0-.32-.08-.58-.12-.76-.14-.59-.29-1.1-.42-1.52a16.42,16.42,0,0,0-.75-1.87c-.11-.23-.23-.49-.41-.83a12.81,12.81,0,0,0-1.07-1.6,15.23,15.23,0,0,0-1.65-1.75,35.07,35.07,0,0,0-4-3.11c-.4-.26-1-.65-1.73-1.11-1.05-.66-1.44-.86-2.35-1.42-.64-.39-1.82-1.1-3.15-2a29.22,29.22,0,0,1-2.62-2,17.91,17.91,0,0,1-2.83-3A15.88,15.88,0,0,1,231.13,82c-.34-1.16-.56-2.12-.71-2.85-.21-1-.36-2-.43-2.36s-.11-.64-.12-.73-.08-.7-.14-1l0-.17-.07-.24a.44.44,0,0,0,0-.1c0-.13-.07-.18-.12-.31a1,1,0,0,1-.06-.2.53.53,0,0,1,0-.25Z"/><path class="cls-1" d="M1.66,14,4.08,30.42,16.8,27.68,16.2,70.5H67.08L66,28.05,79.1,30.39l2.84-16L52,2.58s-10.25,9.27-20.7,0Z"/><path d="M289.65,109.05a3.59,3.59,0,0,0-.19-.62c-.13-.37-.08-.24-.2-.59-1.33-3.69-2-5.4-2-5.4-.19-.48-.84-2.33-2.14-6-.62-1.74-1.43-4.05-2.39-6.79,0,0-.08-.14-.05-.18s0,0,.15,0l.13,0a.8.8,0,0,1,.23.13c.09.07.11.13.2.19a.57.57,0,0,0,.26.08,4.91,4.91,0,0,0,.6-.17c1-.29,1.35-.53,2-.7a4,4,0,0,0,.41-.14c.2-.08.15-.08.47-.23a.6.6,0,0,0,.28-.17.47.47,0,0,0,.13-.18,1.23,1.23,0,0,0-.16-.33,1.58,1.58,0,0,0-.66-.58,4.48,4.48,0,0,0-.62-.09h-1.32a17.25,17.25,0,0,0-2.21.28l-.61.09c-.31-.92-.62-1.84-.94-2.77q-1.66-4.81-3.45-9.31a.38.38,0,0,0-.14,0,.48.48,0,0,0-.2,0c-.27.08-1.32.46-1.66.57l-.63.2c-.25.1-.39.15-.56.23a2.57,2.57,0,0,1-.37.16l-.14,0-.15.07s-.07,0-.08.06a0,0,0,0,0,0,0,1.24,1.24,0,0,0,0,.23,4.24,4.24,0,0,0,.14.52c.08.25.08.25.1.33.29.95.79,2.34.79,2.34.38,1.06.28.81.69,2,.47,1.31,1.5,4.13,1.75,4.85l.16.49c.08.26.09.35.17.57s0,.14.14.36.14.39.18.5a2.3,2.3,0,0,0-.31.09c-.21.07-.35.14-.44.17-.32.15-.25.1-.91.38l-.62.27c-.49.18-.64.17-1.11.37l-.4.18-.75.31c-.61.24-1.26.62-2.19,1.1-.35.17-.86.43-1.48.72-.21-.64-.52-1.57-.91-2.7-.68-2-1.17-3.26-1.71-4.68-1.37-3.67-1.15-3.2-2.7-7.33-.5-1.33-1.21-3.23-2.09-5.53a.53.53,0,0,0-.12-.19s0,0-.07-.06a.36.36,0,0,0-.33,0c-.59.19-1.1.38-1.51.53-.69.26-.54.22-1,.39a5.51,5.51,0,0,0-.75.31l-.28.14a1.49,1.49,0,0,0,0,.17,1.66,1.66,0,0,0,.13.47c.06.16.1.33.16.49l.1.31c.09.25.15.44.16.47.71,2.17,2.13,6,2.13,6,.52,1.39,1.25,3.4,2.16,6,.11.3.28.76.48,1.33s.32.88.49,1.32c.51,1.36.83,2.14,1.24,3.4.2.64.36,1.17.46,1.51-.22.19-.55.48-1,.81s-.63.48-1.35,1c0,0-.83.64-1.71,1.46a3,3,0,0,0-.54.64,2.9,2.9,0,0,0-.33.79,1.31,1.31,0,0,0,0,.76,2.54,2.54,0,0,0,.2.68,2.14,2.14,0,0,0,.42.57,14.38,14.38,0,0,0,1.62,1.33l1.09.88c1.55,1.27,2.06,2,4.05,3.81.27.25.7.64,1.25,1.12a.62.62,0,0,0,.36.12.67.67,0,0,0,.44-.14l.51-.17.35,1a.47.47,0,0,0,.26.43.4.4,0,0,0,.3,0c.53-.15,1.2-.35,1.92-.61a10.4,10.4,0,0,0,1.18-.53,2.25,2.25,0,0,0,.42-.28,1.56,1.56,0,0,0,.13-.13c-.19-.62-.49-1.57-.87-2.72-.81-2.42-1.39-3.93-2.39-6.64-.44-1.18-1.06-2.9-1.81-5,1-.69,2-1.24,2.69-1.66,2.14-1.24,2.28-1.16,3.4-1.81a5.37,5.37,0,0,1,1.23-.55,5.72,5.72,0,0,1,.6-.15c.22.57.52,1.39.89,2.37,1,2.78,1.85,5,2.95,8.11.95,2.65,2.15,6,3.53,9.92a.53.53,0,0,0,.19.34.37.37,0,0,0,.14.07l2.42-.79a7.48,7.48,0,0,0,1.08-.45c.18-.09.33-.18.43-.24A2.31,2.31,0,0,0,289.65,109.05ZM268,102c-.16-.14-.28-.21-.45-.34a4.62,4.62,0,0,1-.52-.4l-1.32-1a1.75,1.75,0,0,1-.62-.81,1.38,1.38,0,0,1-.05-.36.82.82,0,0,1,0-.3,1.2,1.2,0,0,1,.13-.28c.18-.29.32-.48.32-.48s.21-.29.36-.47l.16-.16.12-.1c.05-.06.06-.08.1-.1a.2.2,0,0,1,.14,0,.2.2,0,0,1,.13.16c.11.27.22.54.33.83.19.49.35,1,.5,1.43s.33.88.49,1.35.31,1,.45,1.41A3.87,3.87,0,0,0,268,102Z"/><path d="M312.94,92a22.55,22.55,0,0,0-.94-4.34,24.06,24.06,0,0,0-4.74-8.76,19.15,19.15,0,0,0-6.63-4.66,9.53,9.53,0,0,0-2.48-.56,9.92,9.92,0,0,0-2.51.07c-.63.2-1.28.42-1.94.66-.92.34-1.79.69-2.59,1a5,5,0,0,0-1,.7,4.9,4.9,0,0,0-.94,1.16,7,7,0,0,0-.6,1.21,7.88,7.88,0,0,0-.42,1.4c-.1.58-.18,1.22-.23,1.91a17.77,17.77,0,0,0-.05,2,1.63,1.63,0,0,0-.7.34,1.41,1.41,0,0,0-.21.23c.36,1.7.87,3.95,1.55,6.57.46,1.77.76,2.92,1.24,4.37a49.78,49.78,0,0,0,2.61,6.46,17.75,17.75,0,0,0,4.13,5.75,17.54,17.54,0,0,0,2.24,1.74,6.78,6.78,0,0,0,.8.33,5.36,5.36,0,0,0,.95.28,4.92,4.92,0,0,0,.9.09,7.13,7.13,0,0,0,1-.12c.18,0,.5-.11,1.34-.37.36-.12.84-.27,1.4-.48a10.45,10.45,0,0,0,2.45-1.14,10.1,10.1,0,0,0,1.08-.79,12.86,12.86,0,0,0,1.45-1.85,14.77,14.77,0,0,0,1.33-2.63,28.42,28.42,0,0,0,1.55-5.7A22.72,22.72,0,0,0,312.94,92Zm-4.06,5.16a20.9,20.9,0,0,1-1.35,5.83c-.28.66-.67,1.4-1,2.11A18.35,18.35,0,0,1,305.3,107l-.34.43a1.45,1.45,0,0,1-.37.37.56.56,0,0,1-.17.09,3.39,3.39,0,0,1-.52-.1,5.52,5.52,0,0,1-.9-.32,9.11,9.11,0,0,1-1.17-.59,10.63,10.63,0,0,1-2.65-2.3,14.3,14.3,0,0,1-1.11-1.45,16,16,0,0,1-1.6-2.7c-.16-.34-.37-.84-.76-1.65-.29-.58-.53-1.06-.7-1.37l.68-.52a15,15,0,0,1-1.25-2.27,15.44,15.44,0,0,1-.93-2.76,37.12,37.12,0,0,1-1-4.49c-.19-1.15-.31-2.23-.39-3.24a16.71,16.71,0,0,1-.1-2.27,17.33,17.33,0,0,1,.19-2,15,15,0,0,1,.81-2.83,4.18,4.18,0,0,1,.55-.94l.15-.17c.15-.18.2-.25.3-.3a.37.37,0,0,1,.16,0,13.31,13.31,0,0,1,2,.38,14.21,14.21,0,0,1,5.34,2.79,21,21,0,0,1,2.92,3.08A20.43,20.43,0,0,1,307,86.34a22.8,22.8,0,0,1,1.51,4.77A23.19,23.19,0,0,1,308.88,97.15Z"/><path d="M333.94,84.49a7,7,0,0,0-.26-1.21,5.42,5.42,0,0,0-.51-1.24,4.78,4.78,0,0,0-1.1-1.31,10.27,10.27,0,0,0-2-1.22,14.37,14.37,0,0,0-3-.92c-.8-.19-1.85-.41-3.11-.6-1.48-.29-2.67-.55-3.53-.76a12.38,12.38,0,0,1-1.76-.52,11.92,11.92,0,0,1-1.49-.71,12.49,12.49,0,0,1-1.3-1.1A7,7,0,0,1,314.26,73a6.2,6.2,0,0,1-.4-1,2.19,2.19,0,0,1,0-.25c0-.11,0-.16,0-.24a1,1,0,0,0-.09-.31.59.59,0,0,0-.11-.09.27.27,0,0,0-.13,0,.19.19,0,0,0-.09-.05.17.17,0,0,0-.18.05,1.62,1.62,0,0,0-.29.15,3,3,0,0,0-.38.33l-.35.33c-.21.2-.28.25-.52.46l-.56.52c-.14.15-.29.31-.44.49s-.27.35-.38.51a2,2,0,0,0,0,.51,2.76,2.76,0,0,0,.22.63,8.76,8.76,0,0,0,.4.87,7.22,7.22,0,0,0,.48.78.4.4,0,0,0-.1.13s0,0,0,0l-.05.06a.16.16,0,0,0-.05.08.28.28,0,0,0,0,.15.61.61,0,0,0,0,.17,2.44,2.44,0,0,0,.08.32,4.35,4.35,0,0,0,.15.47c.09.28.14.46.17.55.09.3.76,2.26,2.44,7l2.08,5.9c1.41,4,2.14,6.1,3,8.59.34,1,.46,1.36.77,2.25.8,2.33,1.11,3.1,1.7,4.86.17.54.45,1.38.78,2.44a3,3,0,0,0,.17.44c.05.11.11.22.16.31a1,1,0,0,0,.14.17.1.1,0,0,0,.07,0,.11.11,0,0,0,.08,0l.17,0,.71-.26q1.5-.55,2.94-1.14a.12.12,0,0,0,.1-.06s0-.06,0-.13a.74.74,0,0,1,0-.19q-1.56-4.48-3.11-9a29.93,29.93,0,0,0,3.05-2.59,30.66,30.66,0,0,0,4-4.86,26.72,26.72,0,0,0,1.46-2.26,14.52,14.52,0,0,0,1-1.88,11.51,11.51,0,0,0,.75-2.65A9.11,9.11,0,0,0,333.94,84.49Zm-4.73,3.75a12,12,0,0,1-.51,1.35,17.79,17.79,0,0,1-1.14,2.14c-.11.18-.44.72-.91,1.4s-.86,1.16-1.2,1.58c-.18.27-.35.48-.47.63s-.31.3-.65.7l-.46.53-.27.32a1.55,1.55,0,0,0-.18.21,2.45,2.45,0,0,1-.21.22.83.83,0,0,1-.21.16l-.17-.28c0-.13-.1-.32-.18-.55-.25-.77-.47-1.34-.54-1.53s-.36-1-.9-2.6c-.66-1.88-1.13-3.4-1.36-4.1-.52-1.64-1.41-4.31-3.07-8.78a.4.4,0,0,1,0-.11l0,0s.07,0,.12,0l.14,0c1.21.26,2.21.43,2.91.55,1,.17,1.6.24,2.6.44s1.62.36,2.1.49a8.79,8.79,0,0,1,1.53.53,6.69,6.69,0,0,1,1.28.75,4.89,4.89,0,0,1,1.59,1.76,4.09,4.09,0,0,1,.39,1.27,6.31,6.31,0,0,1,.06,1.16A7.33,7.33,0,0,1,329.21,88.24Z"/></g></g></svg>